<?xml version="1.0" encoding="UTF-8" standalone="no"?>
<!DOCTYPE svg PUBLIC "-//W3C//DTD SVG 1.1//EN"
 "http://www.w3.org/Graphics/SVG/1.1/DTD/svg11.dtd">
<!-- Generated by graphviz version 2.38.0 (20140413.2041)
 -->
<!-- Title: controllers_diagram Pages: 1 -->
<svg width="706pt" height="712pt"
 viewBox="0.00 0.00 705.50 711.50" xmlns="http://www.w3.org/2000/svg" xmlns:xlink="http://www.w3.org/1999/xlink">
<g id="graph0" class="graph" transform="scale(1 1) rotate(0) translate(310 419.5)">
<title>controllers_diagram</title>
<polygon fill="none" stroke="none" points="-310,292 -310,-419.5 395.5,-419.5 395.5,292 -310,292"/>
<!-- _diagram_info -->
<g id="node1" class="node"><title>_diagram_info</title>
<text text-anchor="start" x="8" y="152.4" font-family="Times,serif" font-size="13.00">Controllers diagram</text>
<text text-anchor="start" x="8" y="166.4" font-family="Times,serif" font-size="13.00">Date: May 30 2018 &#45; 06:24</text>
<text text-anchor="start" x="8" y="180.4" font-family="Times,serif" font-size="13.00">Migration version: 20180530052856</text>
<text text-anchor="start" x="8" y="194.4" font-family="Times,serif" font-size="13.00">Generated by RailRoady 1.5.3</text>
<text text-anchor="start" x="8" y="208.4" font-family="Times,serif" font-size="13.00">http://railroady.prestonlee.com</text>
</g>
<!-- LogsController -->
<g id="node2" class="node"><title>LogsController</title>
<path fill="none" stroke="black" d="M-185.5,89.5C-185.5,89.5 -110.5,89.5 -110.5,89.5 -104.5,89.5 -98.5,83.5 -98.5,77.5 -98.5,77.5 -98.5,-111.5 -98.5,-111.5 -98.5,-117.5 -104.5,-123.5 -110.5,-123.5 -110.5,-123.5 -185.5,-123.5 -185.5,-123.5 -191.5,-123.5 -197.5,-117.5 -197.5,-111.5 -197.5,-111.5 -197.5,77.5 -197.5,77.5 -197.5,83.5 -191.5,89.5 -185.5,89.5"/>
<text text-anchor="middle" x="-148" y="-108.3" font-family="Times,serif" font-size="14.00">LogsController</text>
<polyline fill="none" stroke="black" points="-197.5,-100.5 -98.5,-100.5 "/>
<text text-anchor="start" x="-189.5" y="-85.3" font-family="Times,serif" font-size="14.00">create</text>
<text text-anchor="start" x="-189.5" y="-70.3" font-family="Times,serif" font-size="14.00">destroy</text>
<text text-anchor="start" x="-189.5" y="-55.3" font-family="Times,serif" font-size="14.00">edit</text>
<text text-anchor="start" x="-189.5" y="-40.3" font-family="Times,serif" font-size="14.00">index</text>
<text text-anchor="start" x="-189.5" y="-25.3" font-family="Times,serif" font-size="14.00">new</text>
<text text-anchor="start" x="-189.5" y="-10.3" font-family="Times,serif" font-size="14.00">show</text>
<text text-anchor="start" x="-189.5" y="4.7" font-family="Times,serif" font-size="14.00">update</text>
<polyline fill="none" stroke="black" points="-197.5,12.5 -98.5,12.5 "/>
<polyline fill="none" stroke="black" points="-197.5,36.5 -98.5,36.5 "/>
<text text-anchor="start" x="-189.5" y="51.7" font-family="Times,serif" font-size="14.00">_layout</text>
<text text-anchor="start" x="-189.5" y="66.7" font-family="Times,serif" font-size="14.00">log_params</text>
<text text-anchor="start" x="-189.5" y="81.7" font-family="Times,serif" font-size="14.00">set_log</text>
</g>
<!-- PqrsController -->
<g id="node3" class="node"><title>PqrsController</title>
<path fill="none" stroke="black" d="M300,287.5C300,287.5 372,287.5 372,287.5 378,287.5 384,281.5 384,275.5 384,275.5 384,86.5 384,86.5 384,80.5 378,74.5 372,74.5 372,74.5 300,74.5 300,74.5 294,74.5 288,80.5 288,86.5 288,86.5 288,275.5 288,275.5 288,281.5 294,287.5 300,287.5"/>
<text text-anchor="middle" x="336" y="89.7" font-family="Times,serif" font-size="14.00">PqrsController</text>
<polyline fill="none" stroke="black" points="288,97.5 384,97.5 "/>
<text text-anchor="start" x="296" y="112.7" font-family="Times,serif" font-size="14.00">create</text>
<text text-anchor="start" x="296" y="127.7" font-family="Times,serif" font-size="14.00">destroy</text>
<text text-anchor="start" x="296" y="142.7" font-family="Times,serif" font-size="14.00">edit</text>
<text text-anchor="start" x="296" y="157.7" font-family="Times,serif" font-size="14.00">index</text>
<text text-anchor="start" x="296" y="172.7" font-family="Times,serif" font-size="14.00">new</text>
<text text-anchor="start" x="296" y="187.7" font-family="Times,serif" font-size="14.00">show</text>
<text text-anchor="start" x="296" y="202.7" font-family="Times,serif" font-size="14.00">update</text>
<polyline fill="none" stroke="black" points="288,210.5 384,210.5 "/>
<polyline fill="none" stroke="black" points="288,234.5 384,234.5 "/>
<text text-anchor="start" x="296" y="249.7" font-family="Times,serif" font-size="14.00">_layout</text>
<text text-anchor="start" x="296" y="264.7" font-family="Times,serif" font-size="14.00">pqr_params</text>
<text text-anchor="start" x="296" y="279.7" font-family="Times,serif" font-size="14.00">set_pqr</text>
</g>
<!-- HomeController -->
<g id="node4" class="node"><title>HomeController</title>
<path fill="none" stroke="black" d="M-294,-306.5C-294,-306.5 -212,-306.5 -212,-306.5 -206,-306.5 -200,-312.5 -200,-318.5 -200,-318.5 -200,-387.5 -200,-387.5 -200,-393.5 -206,-399.5 -212,-399.5 -212,-399.5 -294,-399.5 -294,-399.5 -300,-399.5 -306,-393.5 -306,-387.5 -306,-387.5 -306,-318.5 -306,-318.5 -306,-312.5 -300,-306.5 -294,-306.5"/>
<text text-anchor="middle" x="-253" y="-384.3" font-family="Times,serif" font-size="14.00">HomeController</text>
<polyline fill="none" stroke="black" points="-306,-376.5 -200,-376.5 "/>
<text text-anchor="start" x="-298" y="-361.3" font-family="Times,serif" font-size="14.00">index</text>
<polyline fill="none" stroke="black" points="-306,-353.5 -200,-353.5 "/>
<polyline fill="none" stroke="black" points="-306,-329.5 -200,-329.5 "/>
<text text-anchor="start" x="-298" y="-314.3" font-family="Times,serif" font-size="14.00">_layout</text>
</g>
<!-- RolsController -->
<g id="node5" class="node"><title>RolsController</title>
<path fill="none" stroke="black" d="M299.5,35.5C299.5,35.5 372.5,35.5 372.5,35.5 378.5,35.5 384.5,29.5 384.5,23.5 384.5,23.5 384.5,-165.5 384.5,-165.5 384.5,-171.5 378.5,-177.5 372.5,-177.5 372.5,-177.5 299.5,-177.5 299.5,-177.5 293.5,-177.5 287.5,-171.5 287.5,-165.5 287.5,-165.5 287.5,23.5 287.5,23.5 287.5,29.5 293.5,35.5 299.5,35.5"/>
<text text-anchor="middle" x="336" y="-162.3" font-family="Times,serif" font-size="14.00">RolsController</text>
<polyline fill="none" stroke="black" points="287.5,-154.5 384.5,-154.5 "/>
<text text-anchor="start" x="295.5" y="-139.3" font-family="Times,serif" font-size="14.00">create</text>
<text text-anchor="start" x="295.5" y="-124.3" font-family="Times,serif" font-size="14.00">destroy</text>
<text text-anchor="start" x="295.5" y="-109.3" font-family="Times,serif" font-size="14.00">edit</text>
<text text-anchor="start" x="295.5" y="-94.3" font-family="Times,serif" font-size="14.00">index</text>
<text text-anchor="start" x="295.5" y="-79.3" font-family="Times,serif" font-size="14.00">new</text>
<text text-anchor="start" x="295.5" y="-64.3" font-family="Times,serif" font-size="14.00">show</text>
<text text-anchor="start" x="295.5" y="-49.3" font-family="Times,serif" font-size="14.00">update</text>
<polyline fill="none" stroke="black" points="287.5,-41.5 384.5,-41.5 "/>
<polyline fill="none" stroke="black" points="287.5,-17.5 384.5,-17.5 "/>
<text text-anchor="start" x="295.5" y="-2.3" font-family="Times,serif" font-size="14.00">_layout</text>
<text text-anchor="start" x="295.5" y="12.7" font-family="Times,serif" font-size="14.00">rol_params</text>
<text text-anchor="start" x="295.5" y="27.7" font-family="Times,serif" font-size="14.00">set_rol</text>
</g>
<!-- StatusesController -->
<g id="node6" class="node"><title>StatusesController</title>
<path fill="none" stroke="black" d="M156,-144.5C156,-144.5 248,-144.5 248,-144.5 254,-144.5 260,-150.5 260,-156.5 260,-156.5 260,-345.5 260,-345.5 260,-351.5 254,-357.5 248,-357.5 248,-357.5 156,-357.5 156,-357.5 150,-357.5 144,-351.5 144,-345.5 144,-345.5 144,-156.5 144,-156.5 144,-150.5 150,-144.5 156,-144.5"/>
<text text-anchor="middle" x="202" y="-342.3" font-family="Times,serif" font-size="14.00">StatusesController</text>
<polyline fill="none" stroke="black" points="144,-334.5 260,-334.5 "/>
<text text-anchor="start" x="152" y="-319.3" font-family="Times,serif" font-size="14.00">create</text>
<text text-anchor="start" x="152" y="-304.3" font-family="Times,serif" font-size="14.00">destroy</text>
<text text-anchor="start" x="152" y="-289.3" font-family="Times,serif" font-size="14.00">edit</text>
<text text-anchor="start" x="152" y="-274.3" font-family="Times,serif" font-size="14.00">index</text>
<text text-anchor="start" x="152" y="-259.3" font-family="Times,serif" font-size="14.00">new</text>
<text text-anchor="start" x="152" y="-244.3" font-family="Times,serif" font-size="14.00">show</text>
<text text-anchor="start" x="152" y="-229.3" font-family="Times,serif" font-size="14.00">update</text>
<polyline fill="none" stroke="black" points="144,-221.5 260,-221.5 "/>
<polyline fill="none" stroke="black" points="144,-197.5 260,-197.5 "/>
<text text-anchor="start" x="152" y="-182.3" font-family="Times,serif" font-size="14.00">_layout</text>
<text text-anchor="start" x="152" y="-167.3" font-family="Times,serif" font-size="14.00">set_status</text>
<text text-anchor="start" x="152" y="-152.3" font-family="Times,serif" font-size="14.00">status_params</text>
</g>
<!-- PqrFilesController -->
<g id="node7" class="node"><title>PqrFilesController</title>
<path fill="none" stroke="black" d="M12.5,-144.5C12.5,-144.5 105.5,-144.5 105.5,-144.5 111.5,-144.5 117.5,-150.5 117.5,-156.5 117.5,-156.5 117.5,-345.5 117.5,-345.5 117.5,-351.5 111.5,-357.5 105.5,-357.5 105.5,-357.5 12.5,-357.5 12.5,-357.5 6.5,-357.5 0.5,-351.5 0.5,-345.5 0.5,-345.5 0.5,-156.5 0.5,-156.5 0.5,-150.5 6.5,-144.5 12.5,-144.5"/>
<text text-anchor="middle" x="59" y="-342.3" font-family="Times,serif" font-size="14.00">PqrFilesController</text>
<polyline fill="none" stroke="black" points="0.5,-334.5 117.5,-334.5 "/>
<text text-anchor="start" x="8.5" y="-319.3" font-family="Times,serif" font-size="14.00">create</text>
<text text-anchor="start" x="8.5" y="-304.3" font-family="Times,serif" font-size="14.00">destroy</text>
<text text-anchor="start" x="8.5" y="-289.3" font-family="Times,serif" font-size="14.00">edit</text>
<text text-anchor="start" x="8.5" y="-274.3" font-family="Times,serif" font-size="14.00">index</text>
<text text-anchor="start" x="8.5" y="-259.3" font-family="Times,serif" font-size="14.00">new</text>
<text text-anchor="start" x="8.5" y="-244.3" font-family="Times,serif" font-size="14.00">show</text>
<text text-anchor="start" x="8.5" y="-229.3" font-family="Times,serif" font-size="14.00">update</text>
<polyline fill="none" stroke="black" points="0.5,-221.5 117.5,-221.5 "/>
<polyline fill="none" stroke="black" points="0.5,-197.5 117.5,-197.5 "/>
<text text-anchor="start" x="8.5" y="-182.3" font-family="Times,serif" font-size="14.00">_layout</text>
<text text-anchor="start" x="8.5" y="-167.3" font-family="Times,serif" font-size="14.00">pqr_file_params</text>
<text text-anchor="start" x="8.5" y="-152.3" font-family="Times,serif" font-size="14.00">set_pqr_file</text>
</g>
<!-- UsersController -->
<g id="node8" class="node"><title>UsersController</title>
<path fill="none" stroke="black" d="M300.5,-217C300.5,-217 379.5,-217 379.5,-217 385.5,-217 391.5,-223 391.5,-229 391.5,-229 391.5,-403 391.5,-403 391.5,-409 385.5,-415 379.5,-415 379.5,-415 300.5,-415 300.5,-415 294.5,-415 288.5,-409 288.5,-403 288.5,-403 288.5,-229 288.5,-229 288.5,-223 294.5,-217 300.5,-217"/>
<text text-anchor="middle" x="340" y="-399.8" font-family="Times,serif" font-size="14.00">UsersController</text>
<polyline fill="none" stroke="black" points="288.5,-392 391.5,-392 "/>
<text text-anchor="start" x="296.5" y="-376.8" font-family="Times,serif" font-size="14.00">create</text>
<text text-anchor="start" x="296.5" y="-361.8" font-family="Times,serif" font-size="14.00">destroy</text>
<text text-anchor="start" x="296.5" y="-346.8" font-family="Times,serif" font-size="14.00">edit</text>
<text text-anchor="start" x="296.5" y="-331.8" font-family="Times,serif" font-size="14.00">index</text>
<text text-anchor="start" x="296.5" y="-316.8" font-family="Times,serif" font-size="14.00">new</text>
<text text-anchor="start" x="296.5" y="-301.8" font-family="Times,serif" font-size="14.00">show</text>
<text text-anchor="start" x="296.5" y="-286.8" font-family="Times,serif" font-size="14.00">update</text>
<polyline fill="none" stroke="black" points="288.5,-279 391.5,-279 "/>
<polyline fill="none" stroke="black" points="288.5,-255 391.5,-255 "/>
<text text-anchor="start" x="296.5" y="-239.8" font-family="Times,serif" font-size="14.00">_layout</text>
<text text-anchor="start" x="296.5" y="-224.8" font-family="Times,serif" font-size="14.00">users_params</text>
</g>
<!-- DepartmentsController -->
<g id="node9" class="node"><title>DepartmentsController</title>
<path fill="none" stroke="black" d="M-60,107.5C-60,107.5 58,107.5 58,107.5 64,107.5 70,101.5 70,95.5 70,95.5 70,-93.5 70,-93.5 70,-99.5 64,-105.5 58,-105.5 58,-105.5 -60,-105.5 -60,-105.5 -66,-105.5 -72,-99.5 -72,-93.5 -72,-93.5 -72,95.5 -72,95.5 -72,101.5 -66,107.5 -60,107.5"/>
<text text-anchor="middle" x="-1" y="-90.3" font-family="Times,serif" font-size="14.00">DepartmentsController</text>
<polyline fill="none" stroke="black" points="-72,-82.5 70,-82.5 "/>
<text text-anchor="start" x="-64" y="-67.3" font-family="Times,serif" font-size="14.00">create</text>
<text text-anchor="start" x="-64" y="-52.3" font-family="Times,serif" font-size="14.00">destroy</text>
<text text-anchor="start" x="-64" y="-37.3" font-family="Times,serif" font-size="14.00">edit</text>
<text text-anchor="start" x="-64" y="-22.3" font-family="Times,serif" font-size="14.00">index</text>
<text text-anchor="start" x="-64" y="-7.3" font-family="Times,serif" font-size="14.00">new</text>
<text text-anchor="start" x="-64" y="7.7" font-family="Times,serif" font-size="14.00">show</text>
<text text-anchor="start" x="-64" y="22.7" font-family="Times,serif" font-size="14.00">update</text>
<polyline fill="none" stroke="black" points="-72,30.5 70,30.5 "/>
<polyline fill="none" stroke="black" points="-72,54.5 70,54.5 "/>
<text text-anchor="start" x="-64" y="69.7" font-family="Times,serif" font-size="14.00">_layout</text>
<text text-anchor="start" x="-64" y="84.7" font-family="Times,serif" font-size="14.00">department_params</text>
<text text-anchor="start" x="-64" y="99.7" font-family="Times,serif" font-size="14.00">set_department</text>
</g>
<!-- ApplicationController -->
<g id="node10" class="node"><title>ApplicationController</title>
<path fill="none" stroke="black" d="M-222,233.5C-222,233.5 -90,233.5 -90,233.5 -84,233.5 -78,227.5 -78,221.5 -78,221.5 -78,152.5 -78,152.5 -78,146.5 -84,140.5 -90,140.5 -90,140.5 -222,140.5 -222,140.5 -228,140.5 -234,146.5 -234,152.5 -234,152.5 -234,221.5 -234,221.5 -234,227.5 -228,233.5 -222,233.5"/>
<text text-anchor="middle" x="-156" y="155.7" font-family="Times,serif" font-size="14.00">ApplicationController</text>
<polyline fill="none" stroke="black" points="-234,163.5 -78,163.5 "/>
<text text-anchor="start" x="-226" y="178.7" font-family="Times,serif" font-size="14.00">configure_devise_params</text>
<polyline fill="none" stroke="black" points="-234,186.5 -78,186.5 "/>
<polyline fill="none" stroke="black" points="-234,210.5 -78,210.5 "/>
<text text-anchor="start" x="-226" y="225.7" font-family="Times,serif" font-size="14.00">_layout</text>
</g>
<!-- AnswersController -->
<g id="node11" class="node"><title>AnswersController</title>
<path fill="none" stroke="black" d="M-149.5,-162.5C-149.5,-162.5 -54.5,-162.5 -54.5,-162.5 -48.5,-162.5 -42.5,-168.5 -42.5,-174.5 -42.5,-174.5 -42.5,-363.5 -42.5,-363.5 -42.5,-369.5 -48.5,-375.5 -54.5,-375.5 -54.5,-375.5 -149.5,-375.5 -149.5,-375.5 -155.5,-375.5 -161.5,-369.5 -161.5,-363.5 -161.5,-363.5 -161.5,-174.5 -161.5,-174.5 -161.5,-168.5 -155.5,-162.5 -149.5,-162.5"/>
<text text-anchor="middle" x="-102" y="-360.3" font-family="Times,serif" font-size="14.00">AnswersController</text>
<polyline fill="none" stroke="black" points="-161.5,-352.5 -42.5,-352.5 "/>
<text text-anchor="start" x="-153.5" y="-337.3" font-family="Times,serif" font-size="14.00">create</text>
<text text-anchor="start" x="-153.5" y="-322.3" font-family="Times,serif" font-size="14.00">destroy</text>
<text text-anchor="start" x="-153.5" y="-307.3" font-family="Times,serif" font-size="14.00">edit</text>
<text text-anchor="start" x="-153.5" y="-292.3" font-family="Times,serif" font-size="14.00">index</text>
<text text-anchor="start" x="-153.5" y="-277.3" font-family="Times,serif" font-size="14.00">new</text>
<text text-anchor="start" x="-153.5" y="-262.3" font-family="Times,serif" font-size="14.00">show</text>
<text text-anchor="start" x="-153.5" y="-247.3" font-family="Times,serif" font-size="14.00">update</text>
<polyline fill="none" stroke="black" points="-161.5,-239.5 -42.5,-239.5 "/>
<polyline fill="none" stroke="black" points="-161.5,-215.5 -42.5,-215.5 "/>
<text text-anchor="start" x="-153.5" y="-200.3" font-family="Times,serif" font-size="14.00">_layout</text>
<text text-anchor="start" x="-153.5" y="-185.3" font-family="Times,serif" font-size="14.00">answer_params</text>
<text text-anchor="start" x="-153.5" y="-170.3" font-family="Times,serif" font-size="14.00">set_answer</text>
</g>
<!-- NotificationsController -->
<g id="node12" class="node"><title>NotificationsController</title>
<path fill="none" stroke="black" d="M120.5,107.5C120.5,107.5 239.5,107.5 239.5,107.5 245.5,107.5 251.5,101.5 251.5,95.5 251.5,95.5 251.5,-93.5 251.5,-93.5 251.5,-99.5 245.5,-105.5 239.5,-105.5 239.5,-105.5 120.5,-105.5 120.5,-105.5 114.5,-105.5 108.5,-99.5 108.5,-93.5 108.5,-93.5 108.5,95.5 108.5,95.5 108.5,101.5 114.5,107.5 120.5,107.5"/>
<text text-anchor="middle" x="180" y="-90.3" font-family="Times,serif" font-size="14.00">NotificationsController</text>
<polyline fill="none" stroke="black" points="108.5,-82.5 251.5,-82.5 "/>
<text text-anchor="start" x="116.5" y="-67.3" font-family="Times,serif" font-size="14.00">create</text>
<text text-anchor="start" x="116.5" y="-52.3" font-family="Times,serif" font-size="14.00">destroy</text>
<text text-anchor="start" x="116.5" y="-37.3" font-family="Times,serif" font-size="14.00">edit</text>
<text text-anchor="start" x="116.5" y="-22.3" font-family="Times,serif" font-size="14.00">index</text>
<text text-anchor="start" x="116.5" y="-7.3" font-family="Times,serif" font-size="14.00">new</text>
<text text-anchor="start" x="116.5" y="7.7" font-family="Times,serif" font-size="14.00">show</text>
<text text-anchor="start" x="116.5" y="22.7" font-family="Times,serif" font-size="14.00">update</text>
<polyline fill="none" stroke="black" points="108.5,30.5 251.5,30.5 "/>
<polyline fill="none" stroke="black" points="108.5,54.5 251.5,54.5 "/>
<text text-anchor="start" x="116.5" y="69.7" font-family="Times,serif" font-size="14.00">_layout</text>
<text text-anchor="start" x="116.5" y="84.7" font-family="Times,serif" font-size="14.00">notification_params</text>
<text text-anchor="start" x="116.5" y="99.7" font-family="Times,serif" font-size="14.00">set_notification</text>
</g>
</g>
</svg>
