<?xml version="1.0" encoding="UTF-8" standalone="no"?>
<!DOCTYPE svg PUBLIC "-//W3C//DTD SVG 1.1//EN"
 "http://www.w3.org/Graphics/SVG/1.1/DTD/svg11.dtd">
<!-- Generated by graphviz version 2.38.0 (20140413.2041)
 -->
<!-- Title: models_diagram Pages: 1 -->
<svg width="1728pt" height="325pt"
 viewBox="0.00 0.00 1727.50 325.00" xmlns="http://www.w3.org/2000/svg" xmlns:xlink="http://www.w3.org/1999/xlink">
<g id="graph0" class="graph" transform="scale(1 1) rotate(0) translate(4 321)">
<title>models_diagram</title>
<polygon fill="none" stroke="none" points="-4,4 -4,-321 1723.5,-321 1723.5,4 -4,4"/>
<!-- _diagram_info -->
<g id="node1" class="node"><title>_diagram_info</title>
<text text-anchor="start" x="8" y="-183.1" font-family="Times,serif" font-size="13.00">Models diagram</text>
<text text-anchor="start" x="8" y="-169.1" font-family="Times,serif" font-size="13.00">Date: May 30 2018 &#45; 00:34</text>
<text text-anchor="start" x="8" y="-155.1" font-family="Times,serif" font-size="13.00">Migration version: 20180530051739</text>
<text text-anchor="start" x="8" y="-141.1" font-family="Times,serif" font-size="13.00">Generated by RailRoady 1.5.3</text>
<text text-anchor="start" x="8" y="-127.1" font-family="Times,serif" font-size="13.00">http://railroady.prestonlee.com</text>
</g>
<!-- ApplicationRecord -->
<g id="node2" class="node"><title>ApplicationRecord</title>
<ellipse fill="none" stroke="black" cx="309" cy="-158.5" rx="77.1866" ry="18"/>
<text text-anchor="middle" x="309" y="-154.8" font-family="Times,serif" font-size="14.00">ApplicationRecord</text>
</g>
<!-- Status -->
<g id="node3" class="node"><title>Status</title>
<path fill="none" stroke="black" d="M416,-105.5C416,-105.5 546,-105.5 546,-105.5 552,-105.5 558,-111.5 558,-117.5 558,-117.5 558,-199.5 558,-199.5 558,-205.5 552,-211.5 546,-211.5 546,-211.5 416,-211.5 416,-211.5 410,-211.5 404,-205.5 404,-199.5 404,-199.5 404,-117.5 404,-117.5 404,-111.5 410,-105.5 416,-105.5"/>
<text text-anchor="middle" x="481" y="-196.3" font-family="Times,serif" font-size="14.00">Status</text>
<polyline fill="none" stroke="black" points="404,-188.5 558,-188.5 "/>
<text text-anchor="start" x="412" y="-173.3" font-family="Times,serif" font-size="14.00">id :bigint(20)</text>
<text text-anchor="start" x="412" y="-158.3" font-family="Times,serif" font-size="14.00">name :varchar(255)</text>
<text text-anchor="start" x="412" y="-143.3" font-family="Times,serif" font-size="14.00">description :varchar(255)</text>
<text text-anchor="start" x="412" y="-128.3" font-family="Times,serif" font-size="14.00">created_at :datetime</text>
<text text-anchor="start" x="412" y="-113.3" font-family="Times,serif" font-size="14.00">updated_at :datetime</text>
</g>
<!-- Log -->
<g id="node4" class="node"><title>Log</title>
<path fill="none" stroke="black" d="M588.5,-90.5C588.5,-90.5 695.5,-90.5 695.5,-90.5 701.5,-90.5 707.5,-96.5 707.5,-102.5 707.5,-102.5 707.5,-214.5 707.5,-214.5 707.5,-220.5 701.5,-226.5 695.5,-226.5 695.5,-226.5 588.5,-226.5 588.5,-226.5 582.5,-226.5 576.5,-220.5 576.5,-214.5 576.5,-214.5 576.5,-102.5 576.5,-102.5 576.5,-96.5 582.5,-90.5 588.5,-90.5"/>
<text text-anchor="middle" x="642" y="-211.3" font-family="Times,serif" font-size="14.00">Log</text>
<polyline fill="none" stroke="black" points="576.5,-203.5 707.5,-203.5 "/>
<text text-anchor="start" x="584.5" y="-188.3" font-family="Times,serif" font-size="14.00">id :bigint(20)</text>
<text text-anchor="start" x="584.5" y="-173.3" font-family="Times,serif" font-size="14.00">user_id :bigint(20)</text>
<text text-anchor="start" x="584.5" y="-158.3" font-family="Times,serif" font-size="14.00">pqr_id :bigint(20)</text>
<text text-anchor="start" x="584.5" y="-143.3" font-family="Times,serif" font-size="14.00">action :varchar(255)</text>
<text text-anchor="start" x="584.5" y="-128.3" font-family="Times,serif" font-size="14.00">backup :text</text>
<text text-anchor="start" x="584.5" y="-113.3" font-family="Times,serif" font-size="14.00">created_at :datetime</text>
<text text-anchor="start" x="584.5" y="-98.3" font-family="Times,serif" font-size="14.00">updated_at :datetime</text>
</g>
<!-- PqrFile -->
<g id="node5" class="node"><title>PqrFile</title>
<path fill="none" stroke="black" d="M737.5,-113C737.5,-113 844.5,-113 844.5,-113 850.5,-113 856.5,-119 856.5,-125 856.5,-125 856.5,-192 856.5,-192 856.5,-198 850.5,-204 844.5,-204 844.5,-204 737.5,-204 737.5,-204 731.5,-204 725.5,-198 725.5,-192 725.5,-192 725.5,-125 725.5,-125 725.5,-119 731.5,-113 737.5,-113"/>
<text text-anchor="middle" x="791" y="-188.8" font-family="Times,serif" font-size="14.00">PqrFile</text>
<polyline fill="none" stroke="black" points="725.5,-181 856.5,-181 "/>
<text text-anchor="start" x="733.5" y="-165.8" font-family="Times,serif" font-size="14.00">id :bigint(20)</text>
<text text-anchor="start" x="733.5" y="-150.8" font-family="Times,serif" font-size="14.00">url :varchar(255)</text>
<text text-anchor="start" x="733.5" y="-135.8" font-family="Times,serif" font-size="14.00">created_at :datetime</text>
<text text-anchor="start" x="733.5" y="-120.8" font-family="Times,serif" font-size="14.00">updated_at :datetime</text>
</g>
<!-- User -->
<g id="node6" class="node"><title>User</title>
<path fill="none" stroke="black" d="M887,-0.5C887,-0.5 1077,-0.5 1077,-0.5 1083,-0.5 1089,-6.5 1089,-12.5 1089,-12.5 1089,-304.5 1089,-304.5 1089,-310.5 1083,-316.5 1077,-316.5 1077,-316.5 887,-316.5 887,-316.5 881,-316.5 875,-310.5 875,-304.5 875,-304.5 875,-12.5 875,-12.5 875,-6.5 881,-0.5 887,-0.5"/>
<text text-anchor="middle" x="982" y="-301.3" font-family="Times,serif" font-size="14.00">User</text>
<polyline fill="none" stroke="black" points="875,-293.5 1089,-293.5 "/>
<text text-anchor="start" x="883" y="-278.3" font-family="Times,serif" font-size="14.00">id :bigint(20)</text>
<text text-anchor="start" x="883" y="-263.3" font-family="Times,serif" font-size="14.00">email :varchar(255)</text>
<text text-anchor="start" x="883" y="-248.3" font-family="Times,serif" font-size="14.00">encrypted_password :varchar(255)</text>
<text text-anchor="start" x="883" y="-233.3" font-family="Times,serif" font-size="14.00">reset_password_token :varchar(255)</text>
<text text-anchor="start" x="883" y="-218.3" font-family="Times,serif" font-size="14.00">reset_password_sent_at :datetime</text>
<text text-anchor="start" x="883" y="-203.3" font-family="Times,serif" font-size="14.00">remember_created_at :datetime</text>
<text text-anchor="start" x="883" y="-188.3" font-family="Times,serif" font-size="14.00">sign_in_count :int(11)</text>
<text text-anchor="start" x="883" y="-173.3" font-family="Times,serif" font-size="14.00">current_sign_in_at :datetime</text>
<text text-anchor="start" x="883" y="-158.3" font-family="Times,serif" font-size="14.00">last_sign_in_at :datetime</text>
<text text-anchor="start" x="883" y="-143.3" font-family="Times,serif" font-size="14.00">current_sign_in_ip :varchar(255)</text>
<text text-anchor="start" x="883" y="-128.3" font-family="Times,serif" font-size="14.00">last_sign_in_ip :varchar(255)</text>
<text text-anchor="start" x="883" y="-113.3" font-family="Times,serif" font-size="14.00">first_name :varchar(255)</text>
<text text-anchor="start" x="883" y="-98.3" font-family="Times,serif" font-size="14.00">last_name :varchar(255)</text>
<text text-anchor="start" x="883" y="-83.3" font-family="Times,serif" font-size="14.00">phone_number :varchar(255)</text>
<text text-anchor="start" x="883" y="-68.3" font-family="Times,serif" font-size="14.00">birth_date :date</text>
<text text-anchor="start" x="883" y="-53.3" font-family="Times,serif" font-size="14.00">created_at :datetime</text>
<text text-anchor="start" x="883" y="-38.3" font-family="Times,serif" font-size="14.00">updated_at :datetime</text>
<text text-anchor="start" x="883" y="-23.3" font-family="Times,serif" font-size="14.00">rol_id :bigint(20)</text>
<text text-anchor="start" x="883" y="-8.3" font-family="Times,serif" font-size="14.00">department_id :bigint(20)</text>
</g>
<!-- Rol -->
<g id="node7" class="node"><title>Rol</title>
<path fill="none" stroke="black" d="M1119.5,-113C1119.5,-113 1226.5,-113 1226.5,-113 1232.5,-113 1238.5,-119 1238.5,-125 1238.5,-125 1238.5,-192 1238.5,-192 1238.5,-198 1232.5,-204 1226.5,-204 1226.5,-204 1119.5,-204 1119.5,-204 1113.5,-204 1107.5,-198 1107.5,-192 1107.5,-192 1107.5,-125 1107.5,-125 1107.5,-119 1113.5,-113 1119.5,-113"/>
<text text-anchor="middle" x="1173" y="-188.8" font-family="Times,serif" font-size="14.00">Rol</text>
<polyline fill="none" stroke="black" points="1107.5,-181 1238.5,-181 "/>
<text text-anchor="start" x="1115.5" y="-165.8" font-family="Times,serif" font-size="14.00">id :bigint(20)</text>
<text text-anchor="start" x="1115.5" y="-150.8" font-family="Times,serif" font-size="14.00">name :varchar(255)</text>
<text text-anchor="start" x="1115.5" y="-135.8" font-family="Times,serif" font-size="14.00">created_at :datetime</text>
<text text-anchor="start" x="1115.5" y="-120.8" font-family="Times,serif" font-size="14.00">updated_at :datetime</text>
</g>
<!-- Notification -->
<g id="node8" class="node"><title>Notification</title>
<path fill="none" stroke="black" d="M1269,-90.5C1269,-90.5 1385,-90.5 1385,-90.5 1391,-90.5 1397,-96.5 1397,-102.5 1397,-102.5 1397,-214.5 1397,-214.5 1397,-220.5 1391,-226.5 1385,-226.5 1385,-226.5 1269,-226.5 1269,-226.5 1263,-226.5 1257,-220.5 1257,-214.5 1257,-214.5 1257,-102.5 1257,-102.5 1257,-96.5 1263,-90.5 1269,-90.5"/>
<text text-anchor="middle" x="1327" y="-211.3" font-family="Times,serif" font-size="14.00">Notification</text>
<polyline fill="none" stroke="black" points="1257,-203.5 1397,-203.5 "/>
<text text-anchor="start" x="1265" y="-188.3" font-family="Times,serif" font-size="14.00">id :bigint(20)</text>
<text text-anchor="start" x="1265" y="-173.3" font-family="Times,serif" font-size="14.00">date :datetime</text>
<text text-anchor="start" x="1265" y="-158.3" font-family="Times,serif" font-size="14.00">message :varchar(255)</text>
<text text-anchor="start" x="1265" y="-143.3" font-family="Times,serif" font-size="14.00">pqr_id :bigint(20)</text>
<text text-anchor="start" x="1265" y="-128.3" font-family="Times,serif" font-size="14.00">user_id :bigint(20)</text>
<text text-anchor="start" x="1265" y="-113.3" font-family="Times,serif" font-size="14.00">created_at :datetime</text>
<text text-anchor="start" x="1265" y="-98.3" font-family="Times,serif" font-size="14.00">updated_at :datetime</text>
</g>
<!-- Department -->
<g id="node9" class="node"><title>Department</title>
<path fill="none" stroke="black" d="M1427.5,-113C1427.5,-113 1534.5,-113 1534.5,-113 1540.5,-113 1546.5,-119 1546.5,-125 1546.5,-125 1546.5,-192 1546.5,-192 1546.5,-198 1540.5,-204 1534.5,-204 1534.5,-204 1427.5,-204 1427.5,-204 1421.5,-204 1415.5,-198 1415.5,-192 1415.5,-192 1415.5,-125 1415.5,-125 1415.5,-119 1421.5,-113 1427.5,-113"/>
<text text-anchor="middle" x="1481" y="-188.8" font-family="Times,serif" font-size="14.00">Department</text>
<polyline fill="none" stroke="black" points="1415.5,-181 1546.5,-181 "/>
<text text-anchor="start" x="1423.5" y="-165.8" font-family="Times,serif" font-size="14.00">id :bigint(20)</text>
<text text-anchor="start" x="1423.5" y="-150.8" font-family="Times,serif" font-size="14.00">name :varchar(255)</text>
<text text-anchor="start" x="1423.5" y="-135.8" font-family="Times,serif" font-size="14.00">created_at :datetime</text>
<text text-anchor="start" x="1423.5" y="-120.8" font-family="Times,serif" font-size="14.00">updated_at :datetime</text>
</g>
<!-- Pqr -->
<g id="node10" class="node"><title>Pqr</title>
<path fill="none" stroke="black" d="M1576.5,-38C1576.5,-38 1707.5,-38 1707.5,-38 1713.5,-38 1719.5,-44 1719.5,-50 1719.5,-50 1719.5,-267 1719.5,-267 1719.5,-273 1713.5,-279 1707.5,-279 1707.5,-279 1576.5,-279 1576.5,-279 1570.5,-279 1564.5,-273 1564.5,-267 1564.5,-267 1564.5,-50 1564.5,-50 1564.5,-44 1570.5,-38 1576.5,-38"/>
<text text-anchor="middle" x="1642" y="-263.8" font-family="Times,serif" font-size="14.00">Pqr</text>
<polyline fill="none" stroke="black" points="1564.5,-256 1719.5,-256 "/>
<text text-anchor="start" x="1572.5" y="-240.8" font-family="Times,serif" font-size="14.00">id :bigint(20)</text>
<text text-anchor="start" x="1572.5" y="-225.8" font-family="Times,serif" font-size="14.00">first_name :varchar(255)</text>
<text text-anchor="start" x="1572.5" y="-210.8" font-family="Times,serif" font-size="14.00">last_name :varchar(255)</text>
<text text-anchor="start" x="1572.5" y="-195.8" font-family="Times,serif" font-size="14.00">email :varchar(255)</text>
<text text-anchor="start" x="1572.5" y="-180.8" font-family="Times,serif" font-size="14.00">title :varchar(255)</text>
<text text-anchor="start" x="1572.5" y="-165.8" font-family="Times,serif" font-size="14.00">subject :varchar(255)</text>
<text text-anchor="start" x="1572.5" y="-150.8" font-family="Times,serif" font-size="14.00">body :text</text>
<text text-anchor="start" x="1572.5" y="-135.8" font-family="Times,serif" font-size="14.00">creation_date :datetime</text>
<text text-anchor="start" x="1572.5" y="-120.8" font-family="Times,serif" font-size="14.00">expiration_date :datetime</text>
<text text-anchor="start" x="1572.5" y="-105.8" font-family="Times,serif" font-size="14.00">user_id :bigint(20)</text>
<text text-anchor="start" x="1572.5" y="-90.8" font-family="Times,serif" font-size="14.00">pqr_files_id :bigint(20)</text>
<text text-anchor="start" x="1572.5" y="-75.8" font-family="Times,serif" font-size="14.00">status_id :bigint(20)</text>
<text text-anchor="start" x="1572.5" y="-60.8" font-family="Times,serif" font-size="14.00">created_at :datetime</text>
<text text-anchor="start" x="1572.5" y="-45.8" font-family="Times,serif" font-size="14.00">updated_at :datetime</text>
</g>
</g>
</svg>
