<?xml version="1.0" encoding="UTF-8" standalone="no"?>
<!DOCTYPE svg PUBLIC "-//W3C//DTD SVG 1.1//EN"
 "http://www.w3.org/Graphics/SVG/1.1/DTD/svg11.dtd">
<!-- Generated by graphviz version 2.38.0 (20140413.2041)
 -->
<!-- Title: models_diagram Pages: 1 -->
<svg width="1127pt" height="158pt"
 viewBox="0.00 0.00 1127.30 158.00" xmlns="http://www.w3.org/2000/svg" xmlns:xlink="http://www.w3.org/1999/xlink">
<g id="graph0" class="graph" transform="scale(1 1) rotate(0) translate(4 154)">
<title>models_diagram</title>
<polygon fill="none" stroke="none" points="-4,4 -4,-154 1123.3,-154 1123.3,4 -4,4"/>
<!-- _diagram_info -->
<g id="node1" class="node"><title>_diagram_info</title>
<text text-anchor="start" x="8" y="-135.6" font-family="Times,serif" font-size="13.00">Models diagram</text>
<text text-anchor="start" x="8" y="-121.6" font-family="Times,serif" font-size="13.00">Date: May 30 2018 &#45; 06:24</text>
<text text-anchor="start" x="8" y="-107.6" font-family="Times,serif" font-size="13.00">Migration version: 20180530052856</text>
<text text-anchor="start" x="8" y="-93.6" font-family="Times,serif" font-size="13.00">Generated by RailRoady 1.5.3</text>
<text text-anchor="start" x="8" y="-79.6" font-family="Times,serif" font-size="13.00">http://railroady.prestonlee.com</text>
</g>
<!-- ApplicationRecord -->
<g id="node2" class="node"><title>ApplicationRecord</title>
<ellipse fill="none" stroke="black" cx="309" cy="-111" rx="77.1866" ry="18"/>
<text text-anchor="middle" x="309" y="-107.3" font-family="Times,serif" font-size="14.00">ApplicationRecord</text>
</g>
<!-- Status -->
<g id="node3" class="node"><title>Status</title>
<ellipse fill="none" stroke="black" cx="437" cy="-111" rx="32.4942" ry="18"/>
<text text-anchor="middle" x="437" y="-107.3" font-family="Times,serif" font-size="14.00">Status</text>
</g>
<!-- Pqr -->
<g id="node12" class="node"><title>Pqr</title>
<ellipse fill="none" stroke="black" cx="437" cy="-18" rx="27" ry="18"/>
<text text-anchor="middle" x="437" y="-14.3" font-family="Times,serif" font-size="14.00">Pqr</text>
</g>
<!-- Status&#45;&gt;Pqr -->
<g id="edge1" class="edge"><title>Status&#45;&gt;Pqr</title>
<path fill="none" stroke="#d98010" d="M437,-84.7285C437,-72.7246 437,-58.3622 437,-46.1291"/>
<ellipse fill="none" stroke="#d98010" cx="437" cy="-88.8836" rx="4" ry="4"/>
<polygon fill="#d98010" stroke="#d98010" points="437,-46.0397 441.5,-36.0396 437,-41.0397 437,-36.0397 437,-36.0397 437,-36.0397 437,-41.0397 432.5,-36.0397 437,-46.0397 437,-46.0397"/>
</g>
<!-- Log -->
<g id="node4" class="node"><title>Log</title>
<ellipse fill="none" stroke="black" cx="514" cy="-111" rx="27" ry="18"/>
<text text-anchor="middle" x="514" y="-107.3" font-family="Times,serif" font-size="14.00">Log</text>
</g>
<!-- Answer -->
<g id="node5" class="node"><title>Answer</title>
<ellipse fill="none" stroke="black" cx="597" cy="-111" rx="38.1938" ry="18"/>
<text text-anchor="middle" x="597" y="-107.3" font-family="Times,serif" font-size="14.00">Answer</text>
</g>
<!-- PqrFile -->
<g id="node6" class="node"><title>PqrFile</title>
<ellipse fill="none" stroke="black" cx="690" cy="-111" rx="36.2938" ry="18"/>
<text text-anchor="middle" x="690" y="-107.3" font-family="Times,serif" font-size="14.00">PqrFile</text>
</g>
<!-- User -->
<g id="node7" class="node"><title>User</title>
<ellipse fill="none" stroke="black" cx="820" cy="-18" rx="27.0966" ry="18"/>
<text text-anchor="middle" x="820" y="-14.3" font-family="Times,serif" font-size="14.00">User</text>
</g>
<!-- Rol -->
<g id="node8" class="node"><title>Rol</title>
<ellipse fill="none" stroke="black" cx="771" cy="-111" rx="27" ry="18"/>
<text text-anchor="middle" x="771" y="-107.3" font-family="Times,serif" font-size="14.00">Rol</text>
</g>
<!-- Rol&#45;&gt;User -->
<g id="edge2" class="edge"><title>Rol&#45;&gt;User</title>
<path fill="none" stroke="#689318" d="M783.782,-86.2615C790.756,-73.3098 799.387,-57.281 806.474,-44.1198"/>
<ellipse fill="none" stroke="#689318" cx="781.657" cy="-90.2091" rx="4.00002" ry="4.00002"/>
<polygon fill="#689318" stroke="#689318" points="806.575,-43.9329 815.278,-37.2616 808.945,-39.5305 811.316,-35.1281 811.316,-35.1281 811.316,-35.1281 808.945,-39.5305 807.353,-32.9947 806.575,-43.9329 806.575,-43.9329"/>
</g>
<!-- Ability -->
<g id="node9" class="node"><title>Ability</title>
<polygon fill="none" stroke="black" points="994.5,-129 939.5,-129 939.5,-93 994.5,-93 994.5,-129"/>
<text text-anchor="middle" x="967" y="-107.3" font-family="Times,serif" font-size="14.00">Ability</text>
</g>
<!-- Notification -->
<g id="node10" class="node"><title>Notification</title>
<ellipse fill="none" stroke="black" cx="1066" cy="-111" rx="53.0913" ry="18"/>
<text text-anchor="middle" x="1066" y="-107.3" font-family="Times,serif" font-size="14.00">Notification</text>
</g>
<!-- Department -->
<g id="node11" class="node"><title>Department</title>
<ellipse fill="none" stroke="black" cx="869" cy="-111" rx="52.7911" ry="18"/>
<text text-anchor="middle" x="869" y="-107.3" font-family="Times,serif" font-size="14.00">Department</text>
</g>
<!-- Department&#45;&gt;User -->
<g id="edge3" class="edge"><title>Department&#45;&gt;User</title>
<path fill="none" stroke="#f33a44" d="M855.776,-85.4406C848.852,-72.5819 840.391,-56.8694 833.436,-43.9532"/>
<ellipse fill="none" stroke="#f33a44" cx="857.887" cy="-89.3617" rx="4.00002" ry="4.00002"/>
<polygon fill="#f33a44" stroke="#f33a44" points="833.423,-43.9279 832.644,-32.9897 831.052,-39.5256 828.682,-35.1232 828.682,-35.1232 828.682,-35.1232 831.052,-39.5256 824.72,-37.2567 833.423,-43.9279 833.423,-43.9279"/>
</g>
</g>
</svg>
