<?xml version="1.0" encoding="UTF-8" standalone="no"?>
<!DOCTYPE svg PUBLIC "-//W3C//DTD SVG 1.1//EN"
 "http://www.w3.org/Graphics/SVG/1.1/DTD/svg11.dtd">
<!-- Generated by graphviz version 2.38.0 (20140413.2041)
 -->
<!-- Title: models_diagram Pages: 1 -->
<svg width="1543pt" height="498pt"
 viewBox="0.00 0.00 1543.00 498.00" xmlns="http://www.w3.org/2000/svg" xmlns:xlink="http://www.w3.org/1999/xlink">
<g id="graph0" class="graph" transform="scale(1 1) rotate(0) translate(4 494)">
<title>models_diagram</title>
<polygon fill="none" stroke="none" points="-4,4 -4,-494 1539,-494 1539,4 -4,4"/>
<!-- _diagram_info -->
<g id="node1" class="node"><title>_diagram_info</title>
<text text-anchor="start" x="8" y="-446.1" font-family="Times,serif" font-size="13.00">Models diagram</text>
<text text-anchor="start" x="8" y="-432.1" font-family="Times,serif" font-size="13.00">Date: May 30 2018 &#45; 06:24</text>
<text text-anchor="start" x="8" y="-418.1" font-family="Times,serif" font-size="13.00">Migration version: 20180530052856</text>
<text text-anchor="start" x="8" y="-404.1" font-family="Times,serif" font-size="13.00">Generated by RailRoady 1.5.3</text>
<text text-anchor="start" x="8" y="-390.1" font-family="Times,serif" font-size="13.00">http://railroady.prestonlee.com</text>
</g>
<!-- ApplicationRecord -->
<g id="node2" class="node"><title>ApplicationRecord</title>
<ellipse fill="none" stroke="black" cx="309" cy="-421.5" rx="77.1866" ry="18"/>
<text text-anchor="middle" x="309" y="-417.8" font-family="Times,serif" font-size="14.00">ApplicationRecord</text>
</g>
<!-- Status -->
<g id="node3" class="node"><title>Status</title>
<path fill="none" stroke="black" d="M416,-368.5C416,-368.5 546,-368.5 546,-368.5 552,-368.5 558,-374.5 558,-380.5 558,-380.5 558,-462.5 558,-462.5 558,-468.5 552,-474.5 546,-474.5 546,-474.5 416,-474.5 416,-474.5 410,-474.5 404,-468.5 404,-462.5 404,-462.5 404,-380.5 404,-380.5 404,-374.5 410,-368.5 416,-368.5"/>
<text text-anchor="middle" x="481" y="-459.3" font-family="Times,serif" font-size="14.00">Status</text>
<polyline fill="none" stroke="black" points="404,-451.5 558,-451.5 "/>
<text text-anchor="start" x="412" y="-436.3" font-family="Times,serif" font-size="14.00">id :bigint(20)</text>
<text text-anchor="start" x="412" y="-421.3" font-family="Times,serif" font-size="14.00">name :varchar(255)</text>
<text text-anchor="start" x="412" y="-406.3" font-family="Times,serif" font-size="14.00">description :varchar(255)</text>
<text text-anchor="start" x="412" y="-391.3" font-family="Times,serif" font-size="14.00">created_at :datetime</text>
<text text-anchor="start" x="412" y="-376.3" font-family="Times,serif" font-size="14.00">updated_at :datetime</text>
</g>
<!-- Pqr -->
<g id="node12" class="node"><title>Pqr</title>
<path fill="none" stroke="black" d="M415.5,-53C415.5,-53 546.5,-53 546.5,-53 552.5,-53 558.5,-59 558.5,-65 558.5,-65 558.5,-252 558.5,-252 558.5,-258 552.5,-264 546.5,-264 546.5,-264 415.5,-264 415.5,-264 409.5,-264 403.5,-258 403.5,-252 403.5,-252 403.5,-65 403.5,-65 403.5,-59 409.5,-53 415.5,-53"/>
<text text-anchor="middle" x="481" y="-248.8" font-family="Times,serif" font-size="14.00">Pqr</text>
<polyline fill="none" stroke="black" points="403.5,-241 558.5,-241 "/>
<text text-anchor="start" x="411.5" y="-225.8" font-family="Times,serif" font-size="14.00">id :bigint(20)</text>
<text text-anchor="start" x="411.5" y="-210.8" font-family="Times,serif" font-size="14.00">first_name :varchar(255)</text>
<text text-anchor="start" x="411.5" y="-195.8" font-family="Times,serif" font-size="14.00">last_name :varchar(255)</text>
<text text-anchor="start" x="411.5" y="-180.8" font-family="Times,serif" font-size="14.00">email :varchar(255)</text>
<text text-anchor="start" x="411.5" y="-165.8" font-family="Times,serif" font-size="14.00">title :varchar(255)</text>
<text text-anchor="start" x="411.5" y="-150.8" font-family="Times,serif" font-size="14.00">subject :varchar(255)</text>
<text text-anchor="start" x="411.5" y="-135.8" font-family="Times,serif" font-size="14.00">body :text</text>
<text text-anchor="start" x="411.5" y="-120.8" font-family="Times,serif" font-size="14.00">creation_date :datetime</text>
<text text-anchor="start" x="411.5" y="-105.8" font-family="Times,serif" font-size="14.00">expiration_date :datetime</text>
<text text-anchor="start" x="411.5" y="-90.8" font-family="Times,serif" font-size="14.00">status_id :bigint(20)</text>
<text text-anchor="start" x="411.5" y="-75.8" font-family="Times,serif" font-size="14.00">created_at :datetime</text>
<text text-anchor="start" x="411.5" y="-60.8" font-family="Times,serif" font-size="14.00">updated_at :datetime</text>
</g>
<!-- Status&#45;&gt;Pqr -->
<g id="edge1" class="edge"><title>Status&#45;&gt;Pqr</title>
<path fill="none" stroke="#c65b8d" d="M481,-360.069C481,-334.593 481,-304.052 481,-274.576"/>
<ellipse fill="none" stroke="#c65b8d" cx="481" cy="-364.31" rx="4" ry="4"/>
<polygon fill="#c65b8d" stroke="#c65b8d" points="481,-274.204 485.5,-264.204 481,-269.204 481,-264.204 481,-264.204 481,-264.204 481,-269.204 476.5,-264.204 481,-274.204 481,-274.204"/>
</g>
<!-- Log -->
<g id="node4" class="node"><title>Log</title>
<path fill="none" stroke="black" d="M588.5,-353.5C588.5,-353.5 695.5,-353.5 695.5,-353.5 701.5,-353.5 707.5,-359.5 707.5,-365.5 707.5,-365.5 707.5,-477.5 707.5,-477.5 707.5,-483.5 701.5,-489.5 695.5,-489.5 695.5,-489.5 588.5,-489.5 588.5,-489.5 582.5,-489.5 576.5,-483.5 576.5,-477.5 576.5,-477.5 576.5,-365.5 576.5,-365.5 576.5,-359.5 582.5,-353.5 588.5,-353.5"/>
<text text-anchor="middle" x="642" y="-474.3" font-family="Times,serif" font-size="14.00">Log</text>
<polyline fill="none" stroke="black" points="576.5,-466.5 707.5,-466.5 "/>
<text text-anchor="start" x="584.5" y="-451.3" font-family="Times,serif" font-size="14.00">id :bigint(20)</text>
<text text-anchor="start" x="584.5" y="-436.3" font-family="Times,serif" font-size="14.00">user_id :bigint(20)</text>
<text text-anchor="start" x="584.5" y="-421.3" font-family="Times,serif" font-size="14.00">pqr_id :bigint(20)</text>
<text text-anchor="start" x="584.5" y="-406.3" font-family="Times,serif" font-size="14.00">action :varchar(255)</text>
<text text-anchor="start" x="584.5" y="-391.3" font-family="Times,serif" font-size="14.00">backup :text</text>
<text text-anchor="start" x="584.5" y="-376.3" font-family="Times,serif" font-size="14.00">created_at :datetime</text>
<text text-anchor="start" x="584.5" y="-361.3" font-family="Times,serif" font-size="14.00">updated_at :datetime</text>
</g>
<!-- Answer -->
<g id="node5" class="node"><title>Answer</title>
<path fill="none" stroke="black" d="M737.5,-368.5C737.5,-368.5 844.5,-368.5 844.5,-368.5 850.5,-368.5 856.5,-374.5 856.5,-380.5 856.5,-380.5 856.5,-462.5 856.5,-462.5 856.5,-468.5 850.5,-474.5 844.5,-474.5 844.5,-474.5 737.5,-474.5 737.5,-474.5 731.5,-474.5 725.5,-468.5 725.5,-462.5 725.5,-462.5 725.5,-380.5 725.5,-380.5 725.5,-374.5 731.5,-368.5 737.5,-368.5"/>
<text text-anchor="middle" x="791" y="-459.3" font-family="Times,serif" font-size="14.00">Answer</text>
<polyline fill="none" stroke="black" points="725.5,-451.5 856.5,-451.5 "/>
<text text-anchor="start" x="733.5" y="-436.3" font-family="Times,serif" font-size="14.00">id :bigint(20)</text>
<text text-anchor="start" x="733.5" y="-421.3" font-family="Times,serif" font-size="14.00">pqr_id :bigint(20)</text>
<text text-anchor="start" x="733.5" y="-406.3" font-family="Times,serif" font-size="14.00">user_id :bigint(20)</text>
<text text-anchor="start" x="733.5" y="-391.3" font-family="Times,serif" font-size="14.00">created_at :datetime</text>
<text text-anchor="start" x="733.5" y="-376.3" font-family="Times,serif" font-size="14.00">updated_at :datetime</text>
</g>
<!-- PqrFile -->
<g id="node6" class="node"><title>PqrFile</title>
<path fill="none" stroke="black" d="M886.5,-376C886.5,-376 993.5,-376 993.5,-376 999.5,-376 1005.5,-382 1005.5,-388 1005.5,-388 1005.5,-455 1005.5,-455 1005.5,-461 999.5,-467 993.5,-467 993.5,-467 886.5,-467 886.5,-467 880.5,-467 874.5,-461 874.5,-455 874.5,-455 874.5,-388 874.5,-388 874.5,-382 880.5,-376 886.5,-376"/>
<text text-anchor="middle" x="940" y="-451.8" font-family="Times,serif" font-size="14.00">PqrFile</text>
<polyline fill="none" stroke="black" points="874.5,-444 1005.5,-444 "/>
<text text-anchor="start" x="882.5" y="-428.8" font-family="Times,serif" font-size="14.00">id :bigint(20)</text>
<text text-anchor="start" x="882.5" y="-413.8" font-family="Times,serif" font-size="14.00">url :varchar(255)</text>
<text text-anchor="start" x="882.5" y="-398.8" font-family="Times,serif" font-size="14.00">created_at :datetime</text>
<text text-anchor="start" x="882.5" y="-383.8" font-family="Times,serif" font-size="14.00">updated_at :datetime</text>
</g>
<!-- User -->
<g id="node7" class="node"><title>User</title>
<path fill="none" stroke="black" d="M1068,-0.5C1068,-0.5 1258,-0.5 1258,-0.5 1264,-0.5 1270,-6.5 1270,-12.5 1270,-12.5 1270,-304.5 1270,-304.5 1270,-310.5 1264,-316.5 1258,-316.5 1258,-316.5 1068,-316.5 1068,-316.5 1062,-316.5 1056,-310.5 1056,-304.5 1056,-304.5 1056,-12.5 1056,-12.5 1056,-6.5 1062,-0.5 1068,-0.5"/>
<text text-anchor="middle" x="1163" y="-301.3" font-family="Times,serif" font-size="14.00">User</text>
<polyline fill="none" stroke="black" points="1056,-293.5 1270,-293.5 "/>
<text text-anchor="start" x="1064" y="-278.3" font-family="Times,serif" font-size="14.00">id :bigint(20)</text>
<text text-anchor="start" x="1064" y="-263.3" font-family="Times,serif" font-size="14.00">email :varchar(255)</text>
<text text-anchor="start" x="1064" y="-248.3" font-family="Times,serif" font-size="14.00">encrypted_password :varchar(255)</text>
<text text-anchor="start" x="1064" y="-233.3" font-family="Times,serif" font-size="14.00">reset_password_token :varchar(255)</text>
<text text-anchor="start" x="1064" y="-218.3" font-family="Times,serif" font-size="14.00">reset_password_sent_at :datetime</text>
<text text-anchor="start" x="1064" y="-203.3" font-family="Times,serif" font-size="14.00">remember_created_at :datetime</text>
<text text-anchor="start" x="1064" y="-188.3" font-family="Times,serif" font-size="14.00">sign_in_count :int(11)</text>
<text text-anchor="start" x="1064" y="-173.3" font-family="Times,serif" font-size="14.00">current_sign_in_at :datetime</text>
<text text-anchor="start" x="1064" y="-158.3" font-family="Times,serif" font-size="14.00">last_sign_in_at :datetime</text>
<text text-anchor="start" x="1064" y="-143.3" font-family="Times,serif" font-size="14.00">current_sign_in_ip :varchar(255)</text>
<text text-anchor="start" x="1064" y="-128.3" font-family="Times,serif" font-size="14.00">last_sign_in_ip :varchar(255)</text>
<text text-anchor="start" x="1064" y="-113.3" font-family="Times,serif" font-size="14.00">first_name :varchar(255)</text>
<text text-anchor="start" x="1064" y="-98.3" font-family="Times,serif" font-size="14.00">last_name :varchar(255)</text>
<text text-anchor="start" x="1064" y="-83.3" font-family="Times,serif" font-size="14.00">phone_number :varchar(255)</text>
<text text-anchor="start" x="1064" y="-68.3" font-family="Times,serif" font-size="14.00">birth_date :date</text>
<text text-anchor="start" x="1064" y="-53.3" font-family="Times,serif" font-size="14.00">created_at :datetime</text>
<text text-anchor="start" x="1064" y="-38.3" font-family="Times,serif" font-size="14.00">updated_at :datetime</text>
<text text-anchor="start" x="1064" y="-23.3" font-family="Times,serif" font-size="14.00">rol_id :bigint(20)</text>
<text text-anchor="start" x="1064" y="-8.3" font-family="Times,serif" font-size="14.00">department_id :bigint(20)</text>
</g>
<!-- Rol -->
<g id="node8" class="node"><title>Rol</title>
<path fill="none" stroke="black" d="M1035.5,-376C1035.5,-376 1142.5,-376 1142.5,-376 1148.5,-376 1154.5,-382 1154.5,-388 1154.5,-388 1154.5,-455 1154.5,-455 1154.5,-461 1148.5,-467 1142.5,-467 1142.5,-467 1035.5,-467 1035.5,-467 1029.5,-467 1023.5,-461 1023.5,-455 1023.5,-455 1023.5,-388 1023.5,-388 1023.5,-382 1029.5,-376 1035.5,-376"/>
<text text-anchor="middle" x="1089" y="-451.8" font-family="Times,serif" font-size="14.00">Rol</text>
<polyline fill="none" stroke="black" points="1023.5,-444 1154.5,-444 "/>
<text text-anchor="start" x="1031.5" y="-428.8" font-family="Times,serif" font-size="14.00">id :bigint(20)</text>
<text text-anchor="start" x="1031.5" y="-413.8" font-family="Times,serif" font-size="14.00">name :varchar(255)</text>
<text text-anchor="start" x="1031.5" y="-398.8" font-family="Times,serif" font-size="14.00">created_at :datetime</text>
<text text-anchor="start" x="1031.5" y="-383.8" font-family="Times,serif" font-size="14.00">updated_at :datetime</text>
</g>
<!-- Rol&#45;&gt;User -->
<g id="edge2" class="edge"><title>Rol&#45;&gt;User</title>
<path fill="none" stroke="#7f834f" d="M1103.85,-368.119C1107.42,-355.529 1111.43,-341.403 1115.62,-326.594"/>
<ellipse fill="none" stroke="#7f834f" cx="1102.73" cy="-372.081" rx="4.00001" ry="4.00001"/>
<polygon fill="#7f834f" stroke="#7f834f" points="1115.68,-326.393 1122.74,-318 1117.05,-321.583 1118.41,-316.773 1118.41,-316.773 1118.41,-316.773 1117.05,-321.583 1114.08,-315.545 1115.68,-326.393 1115.68,-326.393"/>
</g>
<!-- Ability -->
<g id="node9" class="node"><title>Ability</title>
<polygon fill="none" stroke="black" points="1321.5,-398.5 1321.5,-444.5 1376.5,-444.5 1376.5,-398.5 1321.5,-398.5"/>
<text text-anchor="middle" x="1349" y="-429.3" font-family="Times,serif" font-size="14.00">Ability</text>
<polyline fill="none" stroke="black" points="1321.5,-421.5 1376.5,-421.5 "/>
<text text-anchor="middle" x="1349" y="-406.3" font-family="Times,serif" font-size="14.00"> </text>
</g>
<!-- Notification -->
<g id="node10" class="node"><title>Notification</title>
<path fill="none" stroke="black" d="M1407,-353.5C1407,-353.5 1523,-353.5 1523,-353.5 1529,-353.5 1535,-359.5 1535,-365.5 1535,-365.5 1535,-477.5 1535,-477.5 1535,-483.5 1529,-489.5 1523,-489.5 1523,-489.5 1407,-489.5 1407,-489.5 1401,-489.5 1395,-483.5 1395,-477.5 1395,-477.5 1395,-365.5 1395,-365.5 1395,-359.5 1401,-353.5 1407,-353.5"/>
<text text-anchor="middle" x="1465" y="-474.3" font-family="Times,serif" font-size="14.00">Notification</text>
<polyline fill="none" stroke="black" points="1395,-466.5 1535,-466.5 "/>
<text text-anchor="start" x="1403" y="-451.3" font-family="Times,serif" font-size="14.00">id :bigint(20)</text>
<text text-anchor="start" x="1403" y="-436.3" font-family="Times,serif" font-size="14.00">date :datetime</text>
<text text-anchor="start" x="1403" y="-421.3" font-family="Times,serif" font-size="14.00">message :varchar(255)</text>
<text text-anchor="start" x="1403" y="-406.3" font-family="Times,serif" font-size="14.00">pqr_id :bigint(20)</text>
<text text-anchor="start" x="1403" y="-391.3" font-family="Times,serif" font-size="14.00">user_id :bigint(20)</text>
<text text-anchor="start" x="1403" y="-376.3" font-family="Times,serif" font-size="14.00">created_at :datetime</text>
<text text-anchor="start" x="1403" y="-361.3" font-family="Times,serif" font-size="14.00">updated_at :datetime</text>
</g>
<!-- Department -->
<g id="node11" class="node"><title>Department</title>
<path fill="none" stroke="black" d="M1184.5,-376C1184.5,-376 1291.5,-376 1291.5,-376 1297.5,-376 1303.5,-382 1303.5,-388 1303.5,-388 1303.5,-455 1303.5,-455 1303.5,-461 1297.5,-467 1291.5,-467 1291.5,-467 1184.5,-467 1184.5,-467 1178.5,-467 1172.5,-461 1172.5,-455 1172.5,-455 1172.5,-388 1172.5,-388 1172.5,-382 1178.5,-376 1184.5,-376"/>
<text text-anchor="middle" x="1238" y="-451.8" font-family="Times,serif" font-size="14.00">Department</text>
<polyline fill="none" stroke="black" points="1172.5,-444 1303.5,-444 "/>
<text text-anchor="start" x="1180.5" y="-428.8" font-family="Times,serif" font-size="14.00">id :bigint(20)</text>
<text text-anchor="start" x="1180.5" y="-413.8" font-family="Times,serif" font-size="14.00">name :varchar(255)</text>
<text text-anchor="start" x="1180.5" y="-398.8" font-family="Times,serif" font-size="14.00">created_at :datetime</text>
<text text-anchor="start" x="1180.5" y="-383.8" font-family="Times,serif" font-size="14.00">updated_at :datetime</text>
</g>
<!-- Department&#45;&gt;User -->
<g id="edge3" class="edge"><title>Department&#45;&gt;User</title>
<path fill="none" stroke="#674e15" d="M1222.95,-368.119C1219.33,-355.529 1215.27,-341.403 1211.02,-326.594"/>
<ellipse fill="none" stroke="#674e15" cx="1224.09" cy="-372.085" rx="4.00001" ry="4.00001"/>
<polygon fill="#674e15" stroke="#674e15" points="1210.96,-326.384 1212.52,-315.53 1209.57,-321.578 1208.19,-316.773 1208.19,-316.773 1208.19,-316.773 1209.57,-321.578 1203.87,-318.015 1210.96,-326.384 1210.96,-326.384"/>
</g>
</g>
</svg>
